<svg width="18" height="18" viewBox="0 0 18 18" fill="none" xmlns="http://www.w3.org/2000/svg">
<path d="M8.99995 13.8229C9.28058 13.8229 9.50807 13.5954 9.50807 13.3148C9.50807 13.0341 9.28058 12.8066 8.99995 12.8066C8.71932 12.8066 8.49182 13.0341 8.49182 13.3148C8.49182 13.5954 8.71932 13.8229 8.99995 13.8229Z" fill="#00A19B"/>
<path d="M9 12.1891C8.79281 12.1891 8.625 12.0213 8.625 11.8141V9.81441C8.625 9.60723 8.79281 9.43941 9 9.43941C10.2403 9.43941 11.25 8.42973 11.25 7.18941C11.25 5.9491 10.2403 4.93941 9 4.93941C7.75969 4.93941 6.75 5.9491 6.75 7.18941C6.75 7.37035 6.77156 7.55129 6.81375 7.72566C6.8625 7.92723 6.73969 8.12973 6.53812 8.17848C6.33656 8.22723 6.13406 8.10441 6.08531 7.90285C6.02813 7.67035 6 7.43035 6 7.18848C6 5.53473 7.34625 4.18848 9 4.18848C10.6537 4.18848 12 5.53473 12 7.18848C12 8.71566 10.8525 9.98035 9.375 10.165V11.8132C9.375 12.0204 9.20719 12.1882 9 12.1882V12.1891Z" fill="#00A19B"/>
<path d="M9 16.125C5.07094 16.125 1.875 12.9291 1.875 9C1.875 5.07094 5.07094 1.875 9 1.875C12.9291 1.875 16.125 5.07094 16.125 9C16.125 12.9291 12.9291 16.125 9 16.125ZM9 2.625C5.48437 2.625 2.625 5.48437 2.625 9C2.625 12.5156 5.48437 15.375 9 15.375C12.5156 15.375 15.375 12.5156 15.375 9C15.375 5.48437 12.5156 2.625 9 2.625Z" fill="#00A19B"/>
</svg>
