<svg width="32" height="32" viewBox="0 0 32 32" fill="none" xmlns="http://www.w3.org/2000/svg">
<path d="M16.87 6.5615C16.54 6.39817 16.14 6.53317 15.9767 6.86483C15.8133 7.19483 15.95 7.59483 16.28 7.75817C18.6733 8.93983 20.1017 11.5182 19.8333 14.1765C19.7967 14.5432 20.0633 14.8698 20.43 14.9065C20.4533 14.9082 20.475 14.9098 20.4983 14.9098C20.8367 14.9098 21.1267 14.6532 21.16 14.3098C21.485 11.1015 19.76 7.98817 16.87 6.56317V6.5615Z" fill="#00A19B"/>
<path d="M28.0517 27.2105L21.0283 20.1821C22.4067 18.6138 23.265 16.6638 23.48 14.5438C23.7517 11.8605 22.9617 9.23213 21.255 7.14213C19.55 5.05213 17.1317 3.75213 14.4483 3.48213C11.7633 3.21047 9.13501 4.00047 7.04667 5.70713C4.95667 7.4138 3.65667 9.83047 3.38667 12.5138C3.11501 15.1971 3.90501 17.8255 5.61167 19.9155C7.31667 22.0055 9.73501 23.3055 12.4183 23.5755C12.765 23.6105 13.11 23.6271 13.4533 23.6271C15.7717 23.6271 18 22.8355 19.82 21.3505C19.91 21.2771 19.9983 21.1988 20.085 21.1221L27.11 28.1521C27.11 28.1521 27.1183 28.1588 27.1217 28.1621C27.25 28.2855 27.415 28.3488 27.5817 28.3488C27.7483 28.3488 27.9233 28.2838 28.0533 28.1538C28.3133 27.8938 28.3133 27.4721 28.0533 27.2105H28.0517ZM18.975 20.3171C17.1617 21.7971 14.88 22.4821 12.55 22.2471C10.22 22.0121 8.12167 20.8838 6.64167 19.0688C5.16167 17.2538 4.47501 14.9738 4.71167 12.6438C4.94667 10.3138 6.07501 8.21547 7.88834 6.73547C9.46834 5.44547 11.4033 4.7588 13.415 4.7588C13.7133 4.7588 14.0133 4.7738 14.3133 4.8038C16.6433 5.0388 18.74 6.16713 20.2217 7.98213C21.7017 9.79547 22.3883 12.0771 22.1517 14.4071C21.9167 16.7371 20.7883 18.8355 18.9733 20.3155L18.975 20.3171Z" fill="#00A19B"/>
</svg>
