<svg width="18" height="18" viewBox="0 0 18 18" fill="none" xmlns="http://www.w3.org/2000/svg">
<g clip-path="url(#clip0_161_6327)">
<path fill-rule="evenodd" clip-rule="evenodd" d="M5.55664 0.68468C7.20096 0.00377903 9.01033 -0.174253 10.7559 0.172961C12.5016 0.520269 14.1057 1.37726 15.3643 2.63585C16.6228 3.89449 17.4799 5.49852 17.8271 7.24425C18.1744 8.99006 17.9957 10.7999 17.3145 12.4444C16.6332 14.0889 15.48 15.4946 14 16.4835C12.52 17.4724 10.78 18.0001 9 18.0001C7.81806 18.0001 6.64763 17.7669 5.55566 17.3146C4.46386 16.8623 3.47139 16.2 2.63574 15.3644C1.80001 14.5286 1.13683 13.5355 0.68457 12.4435C0.232445 11.3516 -6.75916e-05 10.1809 1.47389e-08 8.99913C0.000193536 7.21928 0.527693 5.47898 1.5166 3.99913C2.50559 2.51922 3.91215 1.36577 5.55664 0.68468ZM13.5693 4.78624C13.4525 4.75732 13.3305 4.75243 13.2119 4.77257C13.0934 4.79271 12.9805 4.83765 12.8799 4.90343C12.7792 4.96923 12.6929 5.05488 12.627 5.15538L8.16309 10.9874L5.53711 8.61925C5.45303 8.53533 5.35256 8.46883 5.24219 8.42491C5.13187 8.38104 5.01322 8.36018 4.89453 8.36339C4.77594 8.36665 4.65946 8.39469 4.55176 8.44445C4.44392 8.49427 4.347 8.56509 4.26758 8.65343C4.18819 8.74175 4.12794 8.84563 4.08984 8.95812C4.0518 9.07054 4.03652 9.18942 4.0459 9.30773C4.0553 9.42614 4.08915 9.5415 4.14453 9.64659C4.19989 9.75163 4.27585 9.84438 4.36816 9.91905L7.69824 12.9191C7.85862 13.0636 8.06733 13.1443 8.2832 13.1446C8.31011 13.1456 8.33697 13.1425 8.36328 13.1368C8.48309 13.1257 8.59979 13.0906 8.70508 13.0323C8.81045 12.974 8.9025 12.8937 8.97559 12.798L14.0127 6.21691C14.0926 6.127 14.1531 6.02166 14.1904 5.90734C14.2277 5.79309 14.2409 5.67248 14.2295 5.55284C14.218 5.43308 14.1824 5.31627 14.124 5.21105C14.0657 5.10593 13.9861 5.01364 13.8906 4.94054C13.7953 4.86758 13.6859 4.81515 13.5693 4.78624Z" fill="#00A19B"/>
</g>
<defs>
<clipPath id="clip0_161_6327">
<rect width="18" height="18" fill="white"/>
</clipPath>
</defs>
</svg>
