<svg width="23" height="23" viewBox="0 0 23 23" fill="none" xmlns="http://www.w3.org/2000/svg">
<path d="M12.1253 4.71583C11.8881 4.59844 11.6006 4.69547 11.4832 4.93386C11.3658 5.17104 11.464 5.45854 11.7012 5.57594C13.4214 6.42526 14.448 8.27844 14.2552 10.1891C14.2288 10.4527 14.4205 10.6874 14.684 10.7138C14.7008 10.715 14.7164 10.7162 14.7331 10.7162C14.9763 10.7162 15.1848 10.5317 15.2087 10.2849C15.4423 7.97896 14.2025 5.74125 12.1253 4.71703V4.71583Z" fill="#005154"/>
<path d="M20.1621 19.5573L15.1141 14.5057C16.1048 13.3784 16.7217 11.9769 16.8763 10.4531C17.0715 8.52447 16.5037 6.63535 15.277 5.13316C14.0516 3.63098 12.3134 2.6966 10.3848 2.50254C8.45491 2.30728 6.56579 2.87509 5.0648 4.10176C3.56262 5.32842 2.62824 7.0654 2.43418 8.99405C2.23892 10.9227 2.80673 12.8118 4.0334 14.314C5.25887 15.8162 6.99704 16.7506 8.92569 16.9446C9.17486 16.9698 9.42282 16.9818 9.6696 16.9818C11.3359 16.9818 12.9375 16.4127 14.2456 15.3454C14.3103 15.2927 14.3738 15.2364 14.4361 15.1813L19.4853 20.2341C19.4853 20.2341 19.4913 20.2389 19.4937 20.2413C19.5859 20.3299 19.7045 20.3755 19.8243 20.3755C19.9441 20.3755 20.0699 20.3287 20.1633 20.2353C20.3502 20.0484 20.3502 19.7454 20.1633 19.5573H20.1621ZM13.6383 14.6027C12.335 15.6664 10.695 16.1588 9.02032 15.9899C7.34564 15.821 5.83746 15.01 4.77371 13.7055C3.70996 12.4009 3.21642 10.7622 3.38652 9.08749C3.55543 7.4128 4.36642 5.90462 5.66975 4.84087C6.80538 3.91368 8.19616 3.42014 9.64204 3.42014C9.85647 3.42014 10.0721 3.43092 10.2877 3.45249C11.9624 3.62139 13.4694 4.43238 14.5343 5.73691C15.5981 7.04025 16.0916 8.6802 15.9215 10.3549C15.7526 12.0296 14.9416 13.5377 13.6371 14.6015L13.6383 14.6027Z" fill="#005154"/>
</svg>
