<svg width="24" height="24" viewBox="0 0 24 24" fill="none" xmlns="http://www.w3.org/2000/svg">
<path fill-rule="evenodd" clip-rule="evenodd" d="M8.53769 3.63672C9.25957 3.70724 9.6547 4.28388 9.85019 4.625C10.0817 5.02903 10.3085 5.60275 10.5592 6.22852L15.8043 19.3184C16.0094 19.8309 15.7601 20.4128 15.2477 20.6182C14.735 20.8234 14.1532 20.5741 13.9478 20.0615L11.8043 14.7119C11.7852 14.713 11.766 14.7148 11.7467 14.7148H5.03672C5.0158 14.7148 4.99481 14.7122 4.97422 14.7109L2.83164 20.0615C2.62622 20.5742 2.04351 20.8236 1.53086 20.6182C1.01857 20.4127 0.769195 19.8308 0.974217 19.3184L6.21933 6.22852C6.47004 5.60276 6.69683 5.02904 6.92832 4.625C7.13676 4.26126 7.57251 3.63001 8.38926 3.62988L8.53769 3.63672ZM8.07578 6.97168L5.775 12.7148H11.0045L8.70273 6.97168C8.57947 6.66401 8.47696 6.41181 8.38926 6.2041C8.30156 6.41181 8.19904 6.66401 8.07578 6.97168Z" fill="#00A19B"/>
<path d="M18 17.5L19.9625 19.7967L21.9249 17.5" stroke="#00A19B" stroke-width="1.5" stroke-linecap="round"/>
<path d="M21.0015 5.96331L21.0015 18.3277C21.0015 18.5834 20.554 18.7905 20.0015 18.7905C19.449 18.7905 19.0015 18.5834 19.0015 18.3277L19.0015 5.96331C19.0015 5.70762 19.449 5.50053 20.0015 5.50053C20.554 5.50053 21.0015 5.70762 21.0015 5.96331Z" fill="#00A19B"/>
<path d="M18.002 7L19.9644 4.70325L21.9269 7" stroke="#00A19B" stroke-width="1.5" stroke-linecap="round"/>
</svg>
