<svg width="50" height="50" viewBox="0 0 50 50" fill="none" xmlns="http://www.w3.org/2000/svg">
<g clip-path="url(#clip0_163_16094)">
<mask id="mask0_163_16094" style="mask-type:luminance" maskUnits="userSpaceOnUse" x="0" y="0" width="50" height="50">
<path d="M50 0H0V50H50V0Z" fill="white"/>
</mask>
<g mask="url(#mask0_163_16094)">
<path d="M9.41929 33.6772C8.84377 33.6772 8.37762 33.2111 8.37762 32.6356V7.70589C8.37762 6.38037 9.45575 5.30225 10.7839 5.30225H34.0156C34.5912 5.30225 35.0573 5.76839 35.0573 6.34391V24.9637C35.0573 25.5392 34.5912 26.0054 34.0156 26.0054C33.4401 26.0054 32.974 25.5392 32.974 24.9637V7.38558H10.7839C10.6068 7.38558 10.461 7.52881 10.461 7.70589V32.6356C10.461 33.2111 9.99481 33.6772 9.41929 33.6772Z" fill="#00A19B"/>
<path d="M25.1979 38.9349H11.3958C9.33853 38.9349 8.58593 37.8932 7.63801 36.5729C7.52083 36.4115 7.39843 36.2422 7.26562 36.0599C7.2526 36.0443 7.24218 36.026 7.23176 36.0104L5.40364 33.2031C5.19531 32.8828 5.17968 32.474 5.36197 32.138C5.54426 31.8021 5.89583 31.5938 6.27864 31.5938H24.9453C25.5208 31.5938 25.987 32.0599 25.987 32.6354C25.987 33.2109 25.5208 33.6771 24.9453 33.6771H8.19531L8.95833 34.849C9.08854 35.026 9.21093 35.1953 9.32552 35.3568C10.2318 36.6146 10.4323 36.8516 11.3932 36.8516H25.1953C25.7708 36.8516 26.237 37.3177 26.237 37.8932C26.237 38.4687 25.7708 38.9349 25.1953 38.9349H25.1979Z" fill="#00A19B"/>
<path d="M38.4089 12.6432H34.026C33.4609 12.6432 32.9974 12.1901 32.9844 11.625L32.8672 6.36719C32.862 6.08594 32.9687 5.8151 33.1641 5.61719C33.3594 5.41927 33.6276 5.30469 33.9089 5.30469C35.4453 5.30469 36.7109 5.79948 37.6693 6.77604C39.4766 8.61458 39.4505 11.5 39.4479 11.6224C39.4375 12.1901 38.974 12.6458 38.4062 12.6458L38.4089 12.6432ZM35.0443 10.5599H37.263C37.1328 9.84115 36.8385 8.89323 36.1797 8.22656C35.8464 7.89062 35.4479 7.65625 34.9792 7.52083L35.0469 10.5599H35.0443Z" fill="#00A19B"/>
<path d="M28.3906 18.3802H14.1667C13.5911 18.3802 13.125 17.9141 13.125 17.3385C13.125 16.763 13.5911 16.2969 14.1667 16.2969H28.3906C28.9661 16.2969 29.4323 16.763 29.4323 17.3385C29.4323 17.9141 28.9661 18.3802 28.3906 18.3802Z" fill="#00A19B"/>
<path d="M28.3906 23.638H14.1667C13.5911 23.638 13.125 23.1719 13.125 22.5964C13.125 22.0208 13.5911 21.5547 14.1667 21.5547H28.3906C28.9661 21.5547 29.4323 22.0208 29.4323 22.5964C29.4323 23.1719 28.9661 23.638 28.3906 23.638Z" fill="#00A19B"/>
<path d="M34.3438 44.8464C28.6146 44.8464 23.9557 40.1849 23.9557 34.4583C23.9557 28.7318 28.6172 24.0703 34.3438 24.0703C40.0703 24.0703 44.7318 28.7318 44.7318 34.4583C44.7318 40.1849 40.0703 44.8464 34.3438 44.8464ZM34.3438 26.151C29.763 26.151 26.0391 29.8776 26.0391 34.4557C26.0391 39.0339 29.7656 42.7604 34.3438 42.7604C38.9219 42.7604 42.6485 39.0339 42.6485 34.4557C42.6485 29.8776 38.9219 26.151 34.3438 26.151Z" fill="#00A19B"/>
<path d="M34.5261 39.5885C33.5469 39.5885 32.6146 39.2525 31.7969 38.5989C30.0573 37.2083 29.8386 34.2942 30.6302 32.2812C31.3568 30.4296 32.8386 29.4036 34.6042 29.5364C35.9297 29.6353 36.9688 30.1249 37.6927 30.9869C38.8386 32.3541 38.6979 34.1041 38.6797 34.2968C38.625 34.828 38.1771 35.2343 37.6433 35.2343H32.3021C32.3933 35.9765 32.6667 36.6249 33.0964 36.9687C33.6615 37.4192 34.2604 37.5833 34.9297 37.4687C35.7891 37.3202 36.4662 36.7525 36.5912 36.552C36.875 36.052 37.5078 35.8749 38.0104 36.1588C38.5104 36.4426 38.6875 37.078 38.4037 37.5807C37.9922 38.3098 36.7917 39.2317 35.3776 39.5025C35.0912 39.5572 34.8047 39.5859 34.5235 39.5859L34.5261 39.5885ZM32.5261 33.151H36.5052C36.4297 32.8697 36.3021 32.5702 36.086 32.315C35.7318 31.8984 35.1953 31.6692 34.4453 31.6119C33.3828 31.5364 32.8412 32.3463 32.5677 33.0416C32.5547 33.078 32.5391 33.1145 32.5261 33.151Z" fill="#00A19B"/>
</g>
</g>
<defs>
<clipPath id="clip0_163_16094">
<rect width="50" height="50" fill="white"/>
</clipPath>
</defs>
</svg>
