<svg width="20" height="20" viewBox="0 0 20 20" fill="none" xmlns="http://www.w3.org/2000/svg">
<g clip-path="url(#clip0_161_6506)">
<mask id="mask0_161_6506" style="mask-type:luminance" maskUnits="userSpaceOnUse" x="0" y="0" width="20" height="20">
<path d="M20 0H0V20H20V0Z" fill="white"/>
</mask>
<g mask="url(#mask0_161_6506)">
<path d="M7.35942 17.1121C7.24692 17.1121 7.13442 17.0767 7.03859 17.0028L3.93546 14.5903C3.70734 14.4132 3.66671 14.083 3.8438 13.8559L12.2615 3.02672C12.6646 2.50797 13.2459 2.17672 13.898 2.09547C14.549 2.01422 15.1948 2.1913 15.7136 2.59442L15.7584 2.62984C16.8292 3.46213 17.023 5.01109 16.1907 6.08192L7.77192 16.91C7.6688 17.0423 7.51463 17.1121 7.35838 17.1121H7.35942ZM4.69171 14.1215L7.30525 16.1538L15.5334 5.56942C15.8 5.22672 15.9178 4.79963 15.8636 4.36838C15.8094 3.93713 15.5907 3.55276 15.248 3.28609L15.2032 3.25067C14.8605 2.98401 14.4334 2.8663 14.0021 2.92047C13.5709 2.97463 13.1865 3.19338 12.9198 3.53609L4.69171 14.1205V14.1215Z" fill="#00A19B"/>
<path d="M12.1814 4.13407L11.6699 4.79199L14.7318 7.17213L15.2432 6.5142L12.1814 4.13407Z" fill="#00A19B"/>
<path d="M4.35839 17.9014L7.52402 17.0868L3.72818 14.1357L3.71985 17.4045C3.71985 17.7399 4.03443 17.9847 4.35943 17.9014H4.35839Z" fill="#00A19B"/>
</g>
</g>
<defs>
<clipPath id="clip0_161_6506">
<rect width="20" height="20" fill="white"/>
</clipPath>
</defs>
</svg>
