<svg width="80" height="80" viewBox="0 0 80 80" fill="none" xmlns="http://www.w3.org/2000/svg">
<g clip-path="url(#clip0_159_3765)">
<mask id="mask0_159_3765" style="mask-type:luminance" maskUnits="userSpaceOnUse" x="0" y="0" width="80" height="80">
<path d="M80 0H0V80H80V0Z" fill="white"/>
</mask>
<g mask="url(#mask0_159_3765)">
<path d="M25.8334 36.8419C27.0806 36.8419 28.0917 35.8308 28.0917 34.5835C28.0917 33.3363 27.0806 32.3252 25.8334 32.3252C24.5862 32.3252 23.5751 33.3363 23.5751 34.5835C23.5751 35.8308 24.5862 36.8419 25.8334 36.8419Z" fill="#00A19B"/>
<path d="M40 36.8419C41.2473 36.8419 42.2584 35.8308 42.2584 34.5835C42.2584 33.3363 41.2473 32.3252 40 32.3252C38.7528 32.3252 37.7417 33.3363 37.7417 34.5835C37.7417 35.8308 38.7528 36.8419 40 36.8419Z" fill="#00A19B"/>
<path d="M54.1667 36.8419C55.4139 36.8419 56.425 35.8308 56.425 34.5835C56.425 33.3363 55.4139 32.3252 54.1667 32.3252C52.9194 32.3252 51.9083 33.3363 51.9083 34.5835C51.9083 35.8308 52.9194 36.8419 54.1667 36.8419Z" fill="#00A19B"/>
<path d="M58.7042 65.3627C57.8334 65.3627 56.975 65.0419 56.3125 64.4335L45.2084 54.196C45.175 54.1669 45.125 54.1502 45.0709 54.1502H11.8209C9.89587 54.1502 8.33337 52.621 8.33337 50.746V18.0419C8.33337 16.1627 9.89587 14.6377 11.8209 14.6377H68.1792C70.1042 14.6377 71.6667 16.1669 71.6667 18.0419V50.746C71.6667 52.6252 70.1042 54.1502 68.1792 54.1502H62.35C62.2417 54.1502 62.2 54.2127 62.1959 54.221V61.9544C62.1959 63.3127 61.4084 64.5044 60.1375 65.0627C59.675 65.2669 59.1875 65.3627 58.7042 65.3627ZM11.8209 17.9669C11.7125 17.9669 11.6709 18.0294 11.6667 18.0377V50.7419C11.6667 50.7419 11.7125 50.8127 11.8209 50.8127H45.075C45.9709 50.8127 46.8209 51.1419 47.4709 51.7419L58.575 61.9752C58.5959 61.996 58.6417 62.0335 58.7292 62.0252C58.8084 62.0127 58.8584 61.9752 58.8667 61.9585V54.2169C58.8667 52.3377 60.4292 50.8127 62.3542 50.8127H68.1834C68.2917 50.8127 68.3334 50.7502 68.3375 50.7419V18.0419C68.3375 18.0419 68.2917 17.971 68.1834 17.971H11.8209V17.9669Z" fill="#00A19B"/>
</g>
</g>
<defs>
<clipPath id="clip0_159_3765">
<rect width="80" height="80" fill="white"/>
</clipPath>
</defs>
</svg>
