<svg width="50" height="50" viewBox="0 0 50 50" fill="none" xmlns="http://www.w3.org/2000/svg">
<g clip-path="url(#clip0_163_16054)">
<mask id="mask0_163_16054" style="mask-type:luminance" maskUnits="userSpaceOnUse" x="0" y="0" width="50" height="50">
<path d="M50 0H0V50H50V0Z" fill="white"/>
</mask>
<g mask="url(#mask0_163_16054)">
<path d="M32.1979 44.7581H17.4271C16.8516 44.7581 16.3854 44.292 16.3854 43.7165V34.0602C16.3854 33.818 16.4687 33.5863 16.6224 33.3988C16.7526 33.2399 17.9974 31.8337 21.112 31.7842C21.1614 31.7842 21.2135 31.7842 21.263 31.7842C23.4479 31.7842 24.7266 32.5368 25.3203 33.0186H31.0807C33.1198 33.0186 34.8333 34.4404 35.2838 36.3441L39.9974 33.4795C41.3333 32.667 43.0755 32.9743 44.0547 34.193C44.6094 34.8831 44.8437 35.7816 44.7005 36.654C44.5573 37.529 44.0469 38.3024 43.2995 38.779L35.4062 43.818C34.4479 44.43 33.3385 44.7529 32.2005 44.7529L32.1979 44.7581ZM18.4687 42.6748H32.1979C32.9375 42.6748 33.6588 42.4639 34.2838 42.0654L42.1771 37.0264C42.4297 36.8649 42.5937 36.6149 42.6432 36.318C42.6927 36.0238 42.6146 35.7321 42.4271 35.4977C42.1016 35.0915 41.5208 34.9899 41.0755 35.2607L34.9375 38.9899C34.7734 39.0889 34.5885 39.141 34.3958 39.141H26.0156C25.4401 39.141 24.9739 38.6748 24.9739 38.0993C24.9739 37.5238 25.4401 37.0576 26.0156 37.0576H33.2943C33.1588 35.9561 32.2161 35.0993 31.0781 35.0993H24.9115C24.5859 35.0993 24.3073 34.9847 24.112 34.7243C24.0937 34.7061 23.276 33.8284 21.1432 33.8649C19.6693 33.8883 18.8437 34.2842 18.4687 34.5342V42.6696V42.6748Z" fill="#00A19B"/>
<path d="M17.4271 34.7215H6.20051C5.62499 34.7215 5.15884 34.2554 5.15884 33.6799C5.15884 33.1043 5.62499 32.6382 6.20051 32.6382H17.4297C18.0052 32.6382 18.4713 33.1043 18.4713 33.6799C18.4713 34.2554 18.0052 34.7215 17.4297 34.7215H17.4271Z" fill="#00A19B"/>
<path d="M17.4271 44.7161H6.20051C5.62499 44.7161 5.15884 44.25 5.15884 43.6745C5.15884 43.099 5.62499 42.6328 6.20051 42.6328H17.4297C18.0052 42.6328 18.4713 43.099 18.4713 43.6745C18.4713 44.25 18.0052 44.7161 17.4297 44.7161H17.4271Z" fill="#00A19B"/>
<path d="M30.5937 31.0731C23.4791 31.0731 17.6927 25.2866 17.6927 18.172C17.6927 11.0575 23.4791 5.271 30.5937 5.271C37.7083 5.271 43.4948 11.0575 43.4948 18.172C43.4948 25.2866 37.7083 31.0731 30.5937 31.0731ZM30.5937 7.35173C24.6276 7.35173 19.776 12.2059 19.776 18.1694C19.776 24.133 24.6302 28.9871 30.5937 28.9871C36.5573 28.9871 41.4114 24.133 41.4114 18.1694C41.4114 12.2059 36.5573 7.35173 30.5937 7.35173Z" fill="#00A19B"/>
<path d="M30.6901 25.9014C29.1953 25.9014 27.776 25.3832 26.5338 24.3701C24.4765 22.6957 23.3047 18.6019 24.8984 14.6566C26.0156 11.891 28.2396 10.3675 30.8411 10.5915C32.8489 10.7608 34.4062 11.5055 35.4739 12.8024C37.2057 14.9092 36.9219 17.6852 36.9088 17.8024C36.8515 18.3311 36.4036 18.7295 35.875 18.7295H35.8646L26.2578 18.6384C26.289 20.3571 26.8515 21.943 27.8515 22.7582C28.9557 23.6566 30.1953 23.9899 31.5364 23.7425C33.2187 23.4352 34.4557 22.3415 34.6901 21.9378C34.9765 21.4404 35.6146 21.2686 36.112 21.5576C36.6094 21.8441 36.7812 22.4821 36.4922 22.9795C35.8646 24.0628 33.9817 25.4118 31.9114 25.792C31.5 25.8675 31.0937 25.904 30.6927 25.904L30.6901 25.9014ZM26.4765 16.5524L34.8203 16.6305C34.75 15.9118 34.5208 14.9118 33.8541 14.1097C33.1588 13.2712 32.0859 12.7842 30.664 12.6644C28.3802 12.4717 27.2786 14.318 26.8281 15.4352C26.6823 15.7972 26.5651 16.1722 26.4739 16.5524H26.4765Z" fill="#00A19B"/>
</g>
</g>
<defs>
<clipPath id="clip0_163_16054">
<rect width="50" height="50" fill="white"/>
</clipPath>
</defs>
</svg>
