<svg width="80" height="80" viewBox="0 0 80 80" fill="none" xmlns="http://www.w3.org/2000/svg">
<g clip-path="url(#clip0_159_3762)">
<mask id="mask0_159_3762" style="mask-type:luminance" maskUnits="userSpaceOnUse" x="0" y="0" width="80" height="80">
<path d="M80 0H0V80H80V0Z" fill="white"/>
</mask>
<g mask="url(#mask0_159_3762)">
<path d="M68.9667 24.7249C68.0458 24.7249 67.3 23.9791 67.3 23.0583V12.7249H56.9958C56.075 12.7249 55.3292 11.9791 55.3292 11.0583C55.3292 10.1374 56.075 9.3916 56.9958 9.3916H68.9667C69.8875 9.3916 70.6333 10.1374 70.6333 11.0583V23.0583C70.6333 23.9791 69.8875 24.7249 68.9667 24.7249Z" fill="#00A19B"/>
<path d="M68.9792 70.6714H56.9792C56.0583 70.6714 55.3125 69.9255 55.3125 69.0047C55.3125 68.0839 56.0583 67.338 56.9792 67.338H67.3125V57.0339C67.3125 56.113 68.0583 55.3672 68.9792 55.3672C69.9 55.3672 70.6458 56.113 70.6458 57.0339V69.0047C70.6458 69.9255 69.9 70.6714 68.9792 70.6714Z" fill="#00A19B"/>
<path d="M22.9625 70.6712H10.9917C10.0708 70.6712 9.32501 69.9254 9.32501 69.0046V57.0046C9.32501 56.0837 10.0708 55.3379 10.9917 55.3379C11.9125 55.3379 12.6583 56.0837 12.6583 57.0046V67.3379H22.9625C23.8833 67.3379 24.6292 68.0837 24.6292 69.0046C24.6292 69.9254 23.8833 70.6712 22.9625 70.6712Z" fill="#00A19B"/>
<path d="M10.9792 24.6919C10.0583 24.6919 9.3125 23.946 9.3125 23.0252V11.0544C9.3125 10.1335 10.0583 9.3877 10.9792 9.3877H22.9792C23.9 9.3877 24.6458 10.1335 24.6458 11.0544C24.6458 11.9752 23.9 12.721 22.9792 12.721H12.6458V23.0252C12.6458 23.946 11.9 24.6919 10.9792 24.6919Z" fill="#00A19B"/>
<path d="M28.4083 27.084C28.4083 25.7033 27.289 24.584 25.9083 24.584C24.5276 24.584 23.4083 25.7033 23.4083 27.084V32.1632C23.4083 33.5439 24.5276 34.6632 25.9083 34.6632C27.289 34.6632 28.4083 33.5439 28.4083 32.1632V27.084Z" fill="#00A19B"/>
<path d="M56.5917 27.084C56.5917 25.7033 55.4724 24.584 54.0917 24.584C52.711 24.584 51.5917 25.7033 51.5917 27.084V32.1632C51.5917 33.5439 52.711 34.6632 54.0917 34.6632C55.4724 34.6632 56.5917 33.5439 56.5917 32.1632V27.084Z" fill="#00A19B"/>
<path d="M40.3792 44.9834H37.0458C35.6667 44.9834 34.5458 43.8626 34.5458 42.4834C34.5458 41.1042 35.6667 39.9834 37.0458 39.9834H39.5458V27.4834C39.5458 26.1042 40.6667 24.9834 42.0458 24.9834C43.425 24.9834 44.5458 26.1042 44.5458 27.4834V40.8167C44.5458 43.1126 42.675 44.9834 40.3792 44.9834Z" fill="#00A19B"/>
<path d="M40.0875 57.9172C35.175 57.9172 30.6 55.9047 27.8584 52.5338C26.9875 51.463 27.15 49.888 28.2209 49.0172C29.2917 48.1463 30.8667 48.3088 31.7375 49.3797C33.5417 51.5963 36.6625 52.9213 40.0875 52.9213C43.5125 52.9213 46.6167 51.6047 48.425 49.4005C49.3 48.3338 50.875 48.1755 51.9417 49.0505C53.0084 49.9255 53.1667 51.5005 52.2917 52.5672C49.5459 55.9172 44.9834 57.9213 40.0875 57.9213V57.9172Z" fill="#00A19B"/>
</g>
</g>
<defs>
<clipPath id="clip0_159_3762">
<rect width="80" height="80" fill="white"/>
</clipPath>
</defs>
</svg>
