<svg width="50" height="50" viewBox="0 0 50 50" fill="none" xmlns="http://www.w3.org/2000/svg">
<g clip-path="url(#clip0_163_16065)">
<mask id="mask0_163_16065" style="mask-type:luminance" maskUnits="userSpaceOnUse" x="0" y="0" width="50" height="50">
<path d="M50 0H0V50H50V0Z" fill="white"/>
</mask>
<g mask="url(#mask0_163_16065)">
<path d="M45.1589 37.2371C44.8854 36.2866 39.6797 24.3153 38.0417 20.5548C40.9662 17.5575 43.1042 14.6903 43.7188 12.2215C44.3984 9.48974 44.25 7.73454 43.2526 6.69287C41.9271 5.31266 39.7109 5.76839 37.5677 6.2111L37.2917 6.26839C33.7813 6.98714 30.8646 10.2996 30.487 10.7476C30.125 11.1043 29.6406 11.6095 29.0651 12.2319C25.4089 10.6382 13.2552 5.35172 12.2943 5.07568C10.125 4.44808 7.34376 9.73454 7.32293 9.78922C6.97657 10.6564 7.6172 11.2345 9.70053 12.9298C10.849 13.8647 12.4636 15.1226 14.5026 16.6694C17.2083 18.7241 19.9583 20.7554 21.0469 21.5548C20.4401 22.297 19.8386 23.0418 19.2474 23.784C17.3646 26.146 15.8932 28.0887 14.737 29.6981L8.54428 26.8022C8.13282 26.6095 7.64584 26.7059 7.33855 27.0392L5.11459 29.4403C4.91668 29.6538 4.81772 29.9429 4.84116 30.2345C4.86459 30.5262 5.01043 30.7944 5.2422 30.9715L11.1016 35.5158C10.5339 36.7606 10.5677 37.258 10.5912 37.5575C10.6276 38.0549 10.8516 38.4767 11.2188 38.7424C11.7136 39.1017 12.2787 39.2658 12.9063 39.2658C13.3724 39.2658 13.875 39.1746 14.4089 39.0054L18.9688 44.8882C19.1484 45.12 19.4167 45.2632 19.7057 45.2892C19.7344 45.2892 19.763 45.2918 19.7917 45.2918C20.0521 45.2918 20.3073 45.1929 20.5 45.0132L22.9011 42.7892C23.2344 42.4819 23.3281 41.995 23.138 41.5835L20.2891 35.4897C21.2214 34.784 22.1953 34.0106 23.2083 33.1929C23.6979 32.7996 24.1667 32.4194 24.6094 32.0705C24.9141 31.8283 25.2813 31.5444 25.6953 31.2189C26.7474 30.396 27.8047 29.5601 28.8542 28.7137C29.7448 29.922 31.6484 32.495 33.5729 35.0314C35.1198 37.0679 36.3776 38.6851 37.3125 39.8335C38.7214 41.5653 39.3568 42.2996 40.0313 42.2996C40.1693 42.2996 40.3073 42.2684 40.4531 42.2111C40.5078 42.1903 45.7917 39.409 45.1667 37.2397L45.1589 37.2371ZM9.54168 10.0705C9.76043 9.71891 10.0859 9.22672 10.4792 8.70589C11.263 7.66422 11.7214 7.28141 11.9141 7.1486C13.4193 7.72151 21.4349 11.1825 27.4505 13.8022L22.0104 19.6798C17.3229 16.2319 11.1511 11.5627 9.53907 10.0679L9.54168 10.0705ZM7.41407 30.0184L8.34636 29.0106L13.5208 31.4298C12.9401 32.284 12.4714 33.0184 12.0964 33.6486L7.41147 30.0184H7.41407ZM20.9245 41.7762L19.9167 42.7085L16.3646 38.1278C17.0599 37.745 17.7969 37.2736 18.5677 36.7397L20.9245 41.7788V41.7762ZM24.4063 29.5757C23.9896 29.9012 23.6198 30.1903 23.3125 30.4325C22.8646 30.7866 22.3906 31.1694 21.8958 31.5679C20.0182 33.0835 17.888 34.7996 15.9974 35.9455C14.0573 37.12 13.125 37.2267 12.7031 37.1512C12.8958 36.3804 14.0651 33.6252 20.8958 25.0548C25.6068 19.146 30.4375 13.7059 31.9766 12.2033L32.0521 12.1226C32.0781 12.0913 34.7344 8.91943 37.7083 8.31266L37.987 8.25537C39.4271 7.95849 41.2214 7.5887 41.7474 8.13818C41.9479 8.34651 42.3438 9.11474 41.6953 11.7189C41.138 13.9585 38.8151 16.8283 35.9766 19.6616L31.6719 23.646C28.8438 26.1069 26.0859 28.2606 24.4037 29.5731L24.4063 29.5757ZM40.1745 39.9976C38.6875 38.396 34.0078 32.2137 30.5573 27.521L33.0573 25.2085C34.2448 24.1798 35.388 23.1486 36.4557 22.1278C39.0807 28.1538 42.5339 36.1564 43.0938 37.6278C42.7135 38.2293 41.1016 39.4246 40.1771 39.9976H40.1745Z" fill="#00A19B"/>
</g>
</g>
<defs>
<clipPath id="clip0_163_16065">
<rect width="50" height="50" fill="white"/>
</clipPath>
</defs>
</svg>
