<svg width="6" height="11" viewBox="0 0 6 11" fill="none" xmlns="http://www.w3.org/2000/svg">
<path d="M4.71953e-07 5.31806C3.39464e-05 5.16135 0.0623124 5.01107 0.173137 4.90028L4.90041 0.17301C5.01122 0.0622318 5.16149 -3.2673e-08 5.31818 -2.58239e-08C5.47487 -1.89749e-08 5.62514 0.0622318 5.73595 0.17301C5.84673 0.283822 5.90897 0.434095 5.90897 0.590783C5.90897 0.747471 5.84673 0.897744 5.73595 1.00856L1.42645 5.31806L5.73595 9.62756C5.84673 9.73837 5.90896 9.88864 5.90896 10.0453C5.90896 10.202 5.84673 10.3523 5.73595 10.4631C5.62514 10.5739 5.47487 10.6361 5.31818 10.6361C5.16149 10.6361 5.01122 10.5739 4.90041 10.4631L0.173137 5.73583C0.0623123 5.62504 3.39327e-05 5.47476 4.71953e-07 5.31806Z" fill="white"/>
</svg>
