<svg width="32" height="32" viewBox="0 0 32 32" fill="none" xmlns="http://www.w3.org/2000/svg">
<path d="M26.2919 4.29387C26.6825 3.90335 27.3156 3.90335 27.7062 4.29387C28.0967 4.68439 28.0967 5.31756 27.7062 5.70808L15.6062 17.8081C15.2156 18.1986 14.5825 18.1986 14.1919 17.8081C13.8014 17.4176 13.8014 16.7844 14.1919 16.3939L26.2919 4.29387Z" fill="#00A19B"/>
<path fill-rule="evenodd" clip-rule="evenodd" d="M26.669 4.05697C27.4597 3.78052 28.2192 4.54068 27.9425 5.33138L20.2432 27.3314C19.9441 28.1861 18.7528 28.235 18.3848 27.4076L14.1417 17.8587L4.59285 13.6146C3.76535 13.2467 3.81423 12.0563 4.66902 11.7572L26.669 4.05697ZM7.71004 12.8119L15.3048 16.1869C15.5309 16.2874 15.712 16.4686 15.8126 16.6947L19.1886 24.2904L25.3692 6.63119L7.71004 12.8119Z" fill="#00A19B"/>
</svg>
