<svg width="269" height="61" viewBox="0 0 269 61" fill="none" xmlns="http://www.w3.org/2000/svg">
<g clip-path="url(#clip0_161_6541)">
<rect x="7" y="7" width="255" height="47" fill="white"/>
<rect x="7" y="7" width="1" height="47" fill="black"/>
<rect x="10" y="7" width="5" height="47" fill="black"/>
<rect x="17" y="7" width="9" height="47" fill="black"/>
<rect x="28" y="7" width="7" height="47" fill="black"/>
<rect x="37" y="7" width="22" height="47" fill="black"/>
<rect x="61" y="7" width="10" height="47" fill="black"/>
<rect x="73" y="7" width="2" height="47" fill="black"/>
<rect x="77" y="7" width="1" height="47" fill="black"/>
<rect x="80" y="7" width="2" height="47" fill="black"/>
<rect x="84" y="7" width="1" height="47" fill="black"/>
<rect x="87" y="7" width="2" height="47" fill="black"/>
<rect x="91" y="7" width="5" height="47" fill="black"/>
<rect x="98" y="7" width="9" height="47" fill="black"/>
<rect x="109" y="7" width="7" height="47" fill="black"/>
<rect x="118" y="7" width="10" height="47" fill="black"/>
<rect x="130" y="7" width="7" height="47" fill="black"/>
<rect x="139" y="7" width="4" height="47" fill="black"/>
<rect x="145" y="7" width="10" height="47" fill="black"/>
<rect x="157" y="7" width="2" height="47" fill="black"/>
<rect x="161" y="7" width="1" height="47" fill="black"/>
<rect x="164" y="7" width="5" height="47" fill="black"/>
<rect x="171" y="7" width="10" height="47" fill="black"/>
<rect x="183" y="7" width="2" height="47" fill="black"/>
<rect x="187" y="7" width="1" height="47" fill="black"/>
<rect x="190" y="7" width="5" height="47" fill="black"/>
<rect x="197" y="7" width="10" height="47" fill="black"/>
<rect x="209" y="7" width="2" height="47" fill="black"/>
<rect x="213" y="7" width="1" height="47" fill="black"/>
<rect x="216" y="7" width="5" height="47" fill="black"/>
<rect x="223" y="7" width="9" height="47" fill="black"/>
<rect x="234" y="7" width="7" height="47" fill="black"/>
<rect x="243" y="7" width="2" height="47" fill="black"/>
<rect x="247" y="7" width="3" height="47" fill="black"/>
<rect x="252" y="7" width="2" height="47" fill="black"/>
<rect x="256" y="7" width="1" height="47" fill="black"/>
<rect x="259" y="7" width="2" height="47" fill="black"/>
</g>
<rect x="3.5" y="3.5" width="262" height="54" stroke="white" stroke-width="7"/>
<defs>
<clipPath id="clip0_161_6541">
<rect x="7" y="7" width="255" height="47" fill="white"/>
</clipPath>
</defs>
</svg>
