<svg width="269" height="61" viewBox="0 0 269 61" fill="none" xmlns="http://www.w3.org/2000/svg">
<g clip-path="url(#clip0_161_6584)">
<rect x="262" y="54" width="255" height="47" transform="rotate(-180 262 54)" fill="white"/>
<rect x="262" y="54" width="1" height="47" transform="rotate(-180 262 54)" fill="black"/>
<rect x="259" y="54" width="5" height="47" transform="rotate(-180 259 54)" fill="black"/>
<rect x="252" y="54" width="9" height="47" transform="rotate(-180 252 54)" fill="black"/>
<rect x="241" y="54" width="7" height="47" transform="rotate(-180 241 54)" fill="black"/>
<rect x="232" y="54" width="22" height="47" transform="rotate(-180 232 54)" fill="black"/>
<rect x="208" y="54" width="10" height="47" transform="rotate(-180 208 54)" fill="black"/>
<rect x="196" y="54" width="2" height="47" transform="rotate(-180 196 54)" fill="black"/>
<rect x="192" y="54" width="1" height="47" transform="rotate(-180 192 54)" fill="black"/>
<rect x="189" y="54" width="2" height="47" transform="rotate(-180 189 54)" fill="black"/>
<rect x="185" y="54" width="1" height="47" transform="rotate(-180 185 54)" fill="black"/>
<rect x="182" y="54" width="2" height="47" transform="rotate(-180 182 54)" fill="black"/>
<rect x="178" y="54" width="5" height="47" transform="rotate(-180 178 54)" fill="black"/>
<rect x="171" y="54" width="9" height="47" transform="rotate(-180 171 54)" fill="black"/>
<rect x="160" y="54" width="7" height="47" transform="rotate(-180 160 54)" fill="black"/>
<rect x="151" y="54" width="10" height="47" transform="rotate(-180 151 54)" fill="black"/>
<rect x="139" y="54" width="7" height="47" transform="rotate(-180 139 54)" fill="black"/>
<rect x="130" y="54" width="4" height="47" transform="rotate(-180 130 54)" fill="black"/>
<rect x="124" y="54" width="10" height="47" transform="rotate(-180 124 54)" fill="black"/>
<rect x="112" y="54" width="2" height="47" transform="rotate(-180 112 54)" fill="black"/>
<rect x="108" y="54" width="1" height="47" transform="rotate(-180 108 54)" fill="black"/>
<rect x="105" y="54" width="5" height="47" transform="rotate(-180 105 54)" fill="black"/>
<rect x="98" y="54" width="10" height="47" transform="rotate(-180 98 54)" fill="black"/>
<rect x="86" y="54" width="2" height="47" transform="rotate(-180 86 54)" fill="black"/>
<rect x="82" y="54" width="1" height="47" transform="rotate(-180 82 54)" fill="black"/>
<rect x="79" y="54" width="5" height="47" transform="rotate(-180 79 54)" fill="black"/>
<rect x="72" y="54" width="10" height="47" transform="rotate(-180 72 54)" fill="black"/>
<rect x="60" y="54" width="2" height="47" transform="rotate(-180 60 54)" fill="black"/>
<rect x="56" y="54" width="1" height="47" transform="rotate(-180 56 54)" fill="black"/>
<rect x="53" y="54" width="5" height="47" transform="rotate(-180 53 54)" fill="black"/>
<rect x="46" y="54" width="9" height="47" transform="rotate(-180 46 54)" fill="black"/>
<rect x="35" y="54" width="7" height="47" transform="rotate(-180 35 54)" fill="black"/>
<rect x="26" y="54" width="2" height="47" transform="rotate(-180 26 54)" fill="black"/>
<rect x="22" y="54" width="3" height="47" transform="rotate(-180 22 54)" fill="black"/>
<rect x="17" y="54" width="2" height="47" transform="rotate(-180 17 54)" fill="black"/>
<rect x="13" y="54" width="1" height="47" transform="rotate(-180 13 54)" fill="black"/>
<rect x="10" y="54" width="2" height="47" transform="rotate(-180 10 54)" fill="black"/>
</g>
<rect x="265.5" y="57.5" width="262" height="54" transform="rotate(-180 265.5 57.5)" stroke="white" stroke-width="7"/>
<defs>
<clipPath id="clip0_161_6584">
<rect x="262" y="54" width="255" height="47" transform="rotate(-180 262 54)" fill="white"/>
</clipPath>
</defs>
</svg>
