<svg width="26" height="26" viewBox="0 0 26 26" fill="none" xmlns="http://www.w3.org/2000/svg">
<path d="M13.0248 16.2498C12.8681 16.2498 12.7179 16.1875 12.6071 16.0766L7.8798 11.3494C7.76902 11.2386 7.70679 11.0883 7.70679 10.9316C7.70679 10.7749 7.76902 10.6246 7.8798 10.5138C7.99061 10.4031 8.14088 10.3408 8.29757 10.3408C8.45426 10.3408 8.60453 10.4031 8.71534 10.5138L13.0248 14.8233L17.3343 10.5138C17.4452 10.4031 17.5954 10.3408 17.7521 10.3408C17.9088 10.3408 18.0591 10.4031 18.1699 10.5138C18.2807 10.6246 18.3429 10.7749 18.3429 10.9316C18.3429 11.0883 18.2807 11.2386 18.1699 11.3494L13.4426 16.0766C13.3318 16.1875 13.1815 16.2498 13.0248 16.2498Z" fill="black" fill-opacity="0.8"/>
</svg>
