<svg width="24" height="24" viewBox="0 0 24 24" fill="none" xmlns="http://www.w3.org/2000/svg">
<path d="M12 24C5.38338 24 0 18.6166 0 12C0 5.38338 5.38338 0 12 0C18.6166 0 24 5.38338 24 12C24 18.6166 18.6166 24 12 24ZM12 1.26001C6.07796 1.26001 1.26001 6.07796 1.26001 12C1.26001 17.922 6.07796 22.74 12 22.74C17.922 22.74 22.74 17.922 22.74 12C22.74 6.07796 17.922 1.26001 12 1.26001Z" fill="#00A19B"/>
<path d="M10.7466 7.04973C10.7466 6.29372 11.3419 5.73145 12.0964 5.73145C12.8508 5.73145 13.4146 6.27797 13.4146 7.04973C13.4146 7.82148 12.8524 8.33494 12.0964 8.33494C11.3404 8.33494 10.7466 7.77266 10.7466 7.04973ZM11.0033 17.27V10.729C11.0033 10.0375 11.3892 9.65164 12.0964 9.65164C12.8035 9.65164 13.2052 10.0375 13.2052 10.729V17.27C13.2052 17.9614 12.8193 18.3473 12.0964 18.3473C11.3734 18.3473 11.0033 17.9614 11.0033 17.27Z" fill="#00A19B"/>
</svg>
