<svg width="44" height="44" viewBox="0 0 44 44" fill="none" xmlns="http://www.w3.org/2000/svg">
<path fill-rule="evenodd" clip-rule="evenodd" d="M16.2104 16.2104C16.4909 15.9299 16.9457 15.9299 17.2262 16.2104L28.5396 27.5238C28.8201 27.8043 28.8201 28.2591 28.5396 28.5396C28.2591 28.8201 27.8043 28.8201 27.5238 28.5396L16.2104 17.2262C15.9299 16.9457 15.9299 16.4909 16.2104 16.2104Z" fill="#1C1C1C"/>
<path fill-rule="evenodd" clip-rule="evenodd" d="M28.5396 16.2104C28.8201 16.4909 28.8201 16.9457 28.5396 17.2262L17.2262 28.5396C16.9457 28.8201 16.4909 28.8201 16.2104 28.5396C15.9299 28.2591 15.9299 27.8043 16.2104 27.5238L27.5238 16.2104C27.8043 15.9299 28.2591 15.9299 28.5396 16.2104Z" fill="#1C1C1C"/>
</svg>
