<svg width="24" height="24" viewBox="0 0 24 24" fill="none" xmlns="http://www.w3.org/2000/svg">
<path d="M8.83125 20.5349C8.69625 20.5349 8.56125 20.4924 8.44625 20.4036L4.7225 17.5086C4.44875 17.2961 4.4 16.8999 4.6125 16.6274L14.7137 3.63235C15.1975 3.00985 15.895 2.61235 16.6775 2.51485C17.4587 2.41735 18.2337 2.62985 18.8562 3.1136L18.91 3.1561C20.195 4.15485 20.4275 6.0136 19.4287 7.2986L9.32625 20.2924C9.2025 20.4511 9.0175 20.5349 8.83 20.5349H8.83125ZM5.63 16.9461L8.76625 19.3849L18.64 6.6836C18.96 6.27235 19.1012 5.75985 19.0362 5.24235C18.9712 4.72485 18.7087 4.2636 18.2975 3.9436L18.2437 3.9011C17.8325 3.5811 17.32 3.43985 16.8025 3.50485C16.285 3.56985 15.8237 3.83235 15.5037 4.2436L5.63 16.9449V16.9461Z" fill="#222222"/>
<path d="M14.6176 4.96098L14.0039 5.75049L17.6781 8.60665L18.2918 7.81714L14.6176 4.96098Z" fill="#222222"/>
<path d="M5.23 21.4826L9.02875 20.5051L4.47375 16.9639L4.46375 20.8864C4.46375 21.2889 4.84125 21.5826 5.23125 21.4826H5.23Z" fill="#222222"/>
</svg>
