<svg width="24" height="24" viewBox="0 0 24 24" fill="none" xmlns="http://www.w3.org/2000/svg">
<path d="M12.5003 22.895C6.76802 22.895 2.10532 18.2323 2.10532 12.5C2.10532 6.76769 6.76802 2.10498 12.5003 2.10498C18.2326 2.10498 22.8953 6.76769 22.8953 12.5C22.8953 18.2323 18.2326 22.895 12.5003 22.895ZM12.5003 3.19919C7.3712 3.19919 3.19953 7.37087 3.19953 12.5C3.19953 17.6291 7.3712 21.8008 12.5003 21.8008C17.6294 21.8008 21.8011 17.6291 21.8011 12.5C21.8011 7.37087 17.6294 3.19919 12.5003 3.19919Z" fill="#222222"/>
<path d="M12.5101 13.0897C10.5829 13.0897 9.01408 11.5208 9.01408 9.59366C9.01408 7.66648 10.5829 6.09766 12.5101 6.09766C14.4373 6.09766 16.0061 7.66648 16.0061 9.59366C16.0061 11.5208 14.4373 13.0897 12.5101 13.0897ZM12.5101 7.19187C11.1861 7.19187 10.1083 8.26966 10.1083 9.59366C10.1083 10.9177 11.1861 11.9955 12.5101 11.9955C13.8341 11.9955 14.9119 10.9177 14.9119 9.59366C14.9119 8.26966 13.8341 7.19187 12.5101 7.19187Z" fill="#222222"/>
<path d="M18.1558 17.953C17.9698 17.953 17.7879 17.8572 17.6853 17.6849C17.632 17.5973 16.2902 15.4814 12.4769 15.4814C8.66353 15.4814 7.50913 17.5727 7.45989 17.6616C7.31628 17.9256 6.98665 18.0268 6.7213 17.8859C6.45596 17.7451 6.35337 17.4182 6.49289 17.1515C6.5517 17.0379 7.98922 14.3872 12.4769 14.3872C16.9645 14.3872 18.5593 17.0133 18.6263 17.1255C18.7809 17.3853 18.6961 17.7204 18.4362 17.875C18.3487 17.927 18.2515 17.9516 18.1572 17.9516L18.1558 17.953Z" fill="#222222"/>
</svg>
