<svg width="22" height="22" viewBox="0 0 22 22" fill="none" xmlns="http://www.w3.org/2000/svg">
<g clip-path="url(#clip0_163_17263)">
<mask id="mask0_163_17263" style="mask-type:luminance" maskUnits="userSpaceOnUse" x="0" y="0" width="22" height="22">
<path d="M22 0H0V22H22V0Z" fill="white"/>
</mask>
<g mask="url(#mask0_163_17263)">
<path d="M8.6762 19.4364C8.07922 19.6461 7.42495 19.3322 7.21527 18.7352L5.58704 14.1209L7.78131 13.4346L9.37745 17.9744C9.58714 18.5713 9.27318 19.2256 8.6762 19.4353V19.4364Z" fill="#FEC515"/>
<path d="M14.2083 2.97217L11.3861 5.53311C10.7421 6.11748 10.003 6.58613 9.19982 6.91842L8.45732 7.22665C8.13649 7.35956 7.80305 7.45811 7.46159 7.52113L4.37701 8.09061C3.89576 8.17998 3.5692 8.63144 3.63565 9.11613L4.22805 13.4382C4.29795 13.947 4.77232 14.2999 5.27992 14.2197L7.65867 13.8438C8.05169 13.782 8.45045 13.7671 8.8469 13.8014L11.0664 13.9905C11.3265 14.0123 11.5832 14.0684 11.8295 14.1578L16.3212 15.7769L14.2094 2.97446L14.2083 2.97217Z" fill="#00A19B"/>
<path d="M15.3437 5.93051C16.3239 5.76894 17.2521 6.43348 17.4139 7.41482L17.909 10.4188C18.0706 11.399 17.4061 12.3272 16.4247 12.489C15.925 12.5714 15.4535 12.2333 15.3712 11.7336L14.5883 6.98405C14.5059 6.48434 14.844 6.01287 15.3437 5.93051Z" fill="#FFE7A3"/>
<path d="M15.0682 3.70596C14.9461 2.96542 14.2468 2.46405 13.5063 2.58611C12.7657 2.70818 12.2644 3.40745 12.3864 4.14799L14.266 15.551C14.3881 16.2915 15.0873 16.7929 15.8279 16.6708C16.5684 16.5488 17.0698 15.8495 16.9477 15.109L15.0682 3.70596Z" fill="#FEC515"/>
<path d="M4.02644 8.1476L4.69217 8.0376L5.70165 14.1655L5.03134 14.2423C4.02186 14.4084 3.06967 13.7255 2.90352 12.716L2.50134 10.2743C2.33519 9.26478 3.01811 8.3126 4.02759 8.14645L4.02644 8.1476Z" fill="#FEC515"/>
</g>
</g>
<defs>
<clipPath id="clip0_163_17263">
<rect width="22" height="22" fill="white"/>
</clipPath>
</defs>
</svg>
