<svg width="27" height="27" viewBox="0 0 27 27" fill="none" xmlns="http://www.w3.org/2000/svg">
<path d="M24.5045 14.0625H9.47589C9.16511 14.0625 8.91339 13.8108 8.91339 13.5C8.91339 13.1892 9.16511 12.9375 9.47589 12.9375H24.5045C24.8153 12.9375 25.067 13.1892 25.067 13.5C25.067 13.8108 24.8153 14.0625 24.5045 14.0625Z" fill="#00A19B" stroke="#00A19B"/>
<path d="M16.6154 9.08631V6.67285C16.6154 5.56828 15.7199 4.67285 14.6154 4.67285H5.11536C4.01079 4.67285 3.11536 5.56828 3.11536 6.67285V20.3267C3.11536 21.4313 4.01079 22.3267 5.11536 22.3267H14.6154C15.7199 22.3267 16.6154 21.4313 16.6154 20.3267V17.9132" stroke="#00A19B" stroke-width="2" stroke-linecap="round" stroke-linejoin="round"/>
<path d="M20.9283 17.6399C20.7849 17.6399 20.6401 17.585 20.5304 17.4753C20.311 17.256 20.311 16.9002 20.5304 16.6794L23.7099 13.4999L20.5304 10.3203C20.311 10.101 20.311 9.74518 20.5304 9.52439C20.7498 9.30502 21.1069 9.30502 21.3263 9.52439L24.9038 13.1019C25.0093 13.2074 25.0683 13.3508 25.0683 13.4999C25.0683 13.6489 25.0093 13.7924 24.9038 13.8978L21.3263 17.4753C21.2166 17.585 21.0718 17.6399 20.9283 17.6399Z" fill="#00A19B" stroke="#00A19B"/>
</svg>
