<svg width="50" height="50" viewBox="0 0 50 50" fill="none" xmlns="http://www.w3.org/2000/svg">
<g clip-path="url(#clip0_163_16083)">
<mask id="mask0_163_16083" style="mask-type:luminance" maskUnits="userSpaceOnUse" x="0" y="0" width="50" height="50">
<path d="M50 0H0V50H50V0Z" fill="white"/>
</mask>
<g mask="url(#mask0_163_16083)">
<path d="M33.3386 39.6069H5.20054C3.4844 39.6069 2.08856 38.2476 2.08856 36.5731V11.3908C2.08856 9.71891 3.4844 8.35693 5.20054 8.35693H43.7604C45.4766 8.35693 46.8724 9.71891 46.8724 11.3908V28.6903C46.8724 29.2658 46.4063 29.7319 45.8308 29.7319C45.2552 29.7319 44.7891 29.2658 44.7891 28.6903V11.3908C44.7891 10.8674 44.3281 10.4403 43.7604 10.4403H5.20054C4.63283 10.4403 4.1719 10.8674 4.1719 11.3908V36.5731C4.1719 37.0965 4.63283 37.5236 5.20054 37.5236H33.3386C33.9141 37.5236 34.3802 37.9897 34.3802 38.5653C34.3802 39.1408 33.9141 39.6069 33.3386 39.6069Z" fill="#00A19B"/>
<path d="M44.7969 15.6488H3.51823C2.94271 15.6488 2.47656 15.1826 2.47656 14.6071C2.47656 14.0316 2.94271 13.5654 3.51823 13.5654H44.7969C45.3724 13.5654 45.8385 14.0316 45.8385 14.6071C45.8385 15.1826 45.3724 15.6488 44.7969 15.6488Z" fill="#00A19B"/>
<path d="M44.7969 20.8988H3.51823C2.94271 20.8988 2.47656 20.4326 2.47656 19.8571C2.47656 19.2816 2.94271 18.8154 3.51823 18.8154H44.7969C45.3724 18.8154 45.8385 19.2816 45.8385 19.8571C45.8385 20.4326 45.3724 20.8988 44.7969 20.8988Z" fill="#00A19B"/>
<path d="M38.8828 41.6407C37.9453 41.6407 36.9948 41.4923 36.0573 41.1824C33.7708 40.4246 31.9141 38.823 30.8307 36.672C29.7474 34.5184 29.5677 32.073 30.3255 29.7866C31.888 25.0652 37 22.4949 41.7213 24.0548C46.4427 25.6173 49.013 30.7293 47.4531 35.4506C46.2005 39.2371 42.6667 41.6381 38.8828 41.6381V41.6407ZM38.8958 25.6824C35.9844 25.6824 33.2682 27.5314 32.3047 30.4402C31.7213 32.2006 31.8594 34.0809 32.6927 35.7345C33.526 37.3908 34.9531 38.6225 36.7109 39.2032C40.3411 40.4038 44.2734 38.4272 45.4766 34.797C46.6771 31.1642 44.7005 27.2345 41.0703 26.0314C40.349 25.7918 39.6172 25.6798 38.8958 25.6798V25.6824Z" fill="#00A19B"/>
<path d="M36.0026 37.9873C35.7917 37.9873 35.5807 37.9222 35.401 37.7972C35.0781 37.568 34.9114 37.1774 34.9713 36.7842L35.4062 34.0133L33.3698 32.0837C33.0807 31.8102 32.9739 31.3988 33.0911 31.0186C33.2083 30.641 33.5312 30.3597 33.9219 30.2972L36.6901 29.8545L37.8958 27.3232C38.0651 26.9665 38.4245 26.7347 38.8203 26.7295H38.8359C39.2266 26.7295 39.5859 26.9482 39.763 27.2972L41.0391 29.7946L43.8203 30.1592C44.2135 30.2113 44.5443 30.4795 44.6719 30.8571C44.7995 31.2347 44.7031 31.6488 44.4245 31.9274L42.4453 33.9118L42.9583 36.667C43.0312 37.0576 42.875 37.4534 42.5573 37.6904C42.2396 37.9274 41.8151 37.9639 41.4609 37.7842L38.9609 36.5133L36.4974 37.8519C36.3411 37.9378 36.1693 37.9795 36 37.9795L36.0026 37.9873ZM36.3385 32.0238L37.2396 32.8779C37.4896 33.1149 37.6068 33.4561 37.5521 33.7946L37.3594 35.0212L38.4505 34.4274C38.7526 34.2633 39.1146 34.2581 39.4193 34.4144L40.526 34.9769L40.2995 33.7581C40.237 33.4222 40.3437 33.0758 40.5859 32.8311L41.4635 31.9508L40.2344 31.7894C39.8932 31.7451 39.599 31.5368 39.4427 31.2295L38.8776 30.1253L38.3437 31.2451C38.1953 31.555 37.9062 31.7712 37.5677 31.8258L36.3411 32.0212L36.3385 32.0238Z" fill="#00A19B"/>
</g>
</g>
<defs>
<clipPath id="clip0_163_16083">
<rect width="50" height="50" fill="white"/>
</clipPath>
</defs>
</svg>
