<svg width="6" height="11" viewBox="0 0 6 11" fill="none" xmlns="http://www.w3.org/2000/svg">
<path d="M5.90896 5.31769C5.90893 5.47439 5.84665 5.62467 5.73583 5.73546L1.00856 10.4627C0.897744 10.5735 0.747471 10.6357 0.590783 10.6357C0.434095 10.6357 0.283822 10.5735 0.17301 10.4627C0.0622318 10.3519 -1.89749e-08 10.2016 -2.58239e-08 10.045C-3.2673e-08 9.88827 0.0622318 9.738 0.17301 9.62719L4.48251 5.31769L0.17301 1.00819C0.0622314 0.897374 -4.32246e-07 0.747101 -4.39095e-07 0.590413C-4.45944e-07 0.433725 0.0622313 0.283452 0.17301 0.17264C0.283821 0.0618618 0.434094 -0.000369589 0.590782 -0.000369596C0.74747 -0.000369603 0.897743 0.0618617 1.00856 0.17264L5.73583 4.89991C5.84665 5.0107 5.90893 5.16098 5.90896 5.31769Z" fill="white"/>
</svg>
