<svg width="50" height="50" viewBox="0 0 50 50" fill="none" xmlns="http://www.w3.org/2000/svg">
<mask id="mask0_163_16040" style="mask-type:luminance" maskUnits="userSpaceOnUse" x="0" y="0" width="50" height="50">
<path d="M49.7448 0.00310291L0.000640869 0.254883L0.252421 49.999L49.9966 49.7473L49.7448 0.00310291Z" fill="white"/>
</mask>
<g mask="url(#mask0_163_16040)">
<path d="M31.1536 44.7371L14.7422 44.8204C14.1667 44.823 13.6979 44.3595 13.6953 43.784L13.6406 33.0574C13.6406 32.8152 13.7214 32.5835 13.875 32.396C14.0156 32.2215 15.3568 30.6902 18.7656 30.6199C21.3177 30.5678 22.763 31.4376 23.4062 31.9663L29.8464 31.9324C32.112 31.922 34.0182 33.5314 34.4557 35.672L39.8151 32.3777C41.2448 31.5001 43.1198 31.8178 44.1771 33.1225C44.776 33.8621 45.0339 34.823 44.8854 35.7631C44.737 36.7032 44.1927 37.5366 43.3932 38.0522L34.651 43.698C33.6068 44.3725 32.3984 44.7319 31.1562 44.7371H31.1536ZM15.7734 42.7319L31.1432 42.6538C31.987 42.6486 32.8099 42.4038 33.5182 41.948L42.2604 36.3022C42.5677 36.1043 42.7682 35.797 42.8255 35.435C42.8828 35.073 42.7891 34.7189 42.5573 34.435C42.1562 33.9402 41.4453 33.8204 40.9062 34.1538L34.1068 38.3335C33.9453 38.4324 33.7578 38.4871 33.5677 38.4871L24.2578 38.534C23.6823 38.5366 23.2135 38.073 23.2109 37.4975C23.2083 36.922 23.6719 36.4532 24.2474 36.4506L32.4609 36.409C32.3568 35.0652 31.2266 34.0079 29.8594 34.0157L23.0078 34.0522C22.6979 34.0522 22.4036 33.9168 22.2057 33.6824C22.1823 33.6564 21.2656 32.6902 18.9427 32.7032C18.8984 32.7032 18.8542 32.7032 18.8099 32.7032C17.0781 32.7397 16.138 33.2267 15.7266 33.5184L15.7734 42.7345V42.7319Z" fill="#00A19B"/>
<path d="M14.6849 33.6668L6.21614 33.7111C5.64062 33.7137 5.17187 33.2502 5.16926 32.6747C5.16666 32.0991 5.6302 31.6304 6.20572 31.6278L14.6745 31.5835C15.25 31.5809 15.7187 32.0444 15.7213 32.62C15.7239 33.1955 15.2604 33.6642 14.6849 33.6668Z" fill="#00A19B"/>
<path d="M14.7422 44.7738L6.43229 44.8154C5.85677 44.818 5.38802 44.3545 5.38542 43.779C5.38281 43.2035 5.84635 42.7347 6.42188 42.7321L14.7318 42.6904C15.3073 42.6878 15.776 43.1514 15.7786 43.7269C15.7813 44.3024 15.3177 44.7712 14.7422 44.7738Z" fill="#00A19B"/>
<path d="M41.5599 32.4377C40.9844 32.4403 40.5156 31.9767 40.513 31.4012L40.4765 24.2866C40.4479 18.7919 35.9557 14.3465 30.4635 14.3752C24.9687 14.4038 20.5234 18.896 20.5521 24.3882L20.5885 31.5028C20.5911 32.0783 20.1276 32.5471 19.5521 32.5497C18.9765 32.5523 18.5078 32.0887 18.5052 31.5132L18.4687 24.3986C18.4349 17.7554 23.8099 12.3257 30.4531 12.2892C37.0963 12.2528 42.526 17.6304 42.5625 24.2736L42.5989 31.3882C42.6015 31.9637 42.138 32.4325 41.5625 32.4351L41.5599 32.4377Z" fill="#00A19B"/>
<path d="M30.4635 14.4246C30.0911 14.4246 29.7474 14.2293 29.5599 13.909L25.4036 6.79443C25.2161 6.47412 25.2135 6.07568 25.3984 5.75277C25.5833 5.42985 25.9245 5.22933 26.2969 5.22673L34.5364 5.18506C34.9088 5.18506 35.2526 5.38037 35.4401 5.70068C35.6276 6.021 35.6302 6.41943 35.4453 6.74235L31.362 13.8986C31.1771 14.2215 30.8359 14.422 30.4635 14.4246ZM28.112 7.29964L30.4479 11.2996L32.7422 7.2762L28.1093 7.29964H28.112Z" fill="#00A19B"/>
<path d="M30.289 24.8908H30.2812C29.0807 24.8908 27.9479 24.4403 27.1745 23.6642C26.5468 23.0314 26.2031 22.2241 26.2057 21.3882C26.2135 19.4715 28.0338 17.9142 30.2708 17.9038H30.3047C31.8463 17.9038 33.237 18.633 33.9349 19.8022C34.2291 20.297 34.0677 20.9351 33.5755 21.2293C33.0807 21.5236 32.4427 21.3621 32.1484 20.87C31.8281 20.3361 31.1041 19.9897 30.3021 19.9871H30.2838C29.2031 19.9924 28.2942 20.6356 28.2916 21.396C28.2916 21.7528 28.487 22.0288 28.6536 22.1955C29.0338 22.5783 29.6458 22.8075 30.2864 22.8075C30.862 22.8075 31.3281 23.2762 31.3255 23.8517C31.3255 24.4246 30.862 24.8882 30.289 24.8908Z" fill="#00A19B"/>
<path d="M30.2943 29.797H30.2604C28.6484 29.7944 27.1875 28.9845 26.5364 27.7319C26.2708 27.2215 26.4687 26.5939 26.9792 26.3283C27.4896 26.0627 28.1172 26.2606 28.3828 26.771C28.6745 27.3335 29.4297 27.7111 30.2604 27.7137H30.2786C31.3594 27.7085 32.2682 27.0653 32.2708 26.3049C32.2708 25.9481 32.0755 25.672 31.9088 25.5054C31.5286 25.1226 30.9167 24.8934 30.276 24.8934C29.7005 24.8934 29.2344 24.4246 29.237 23.8491C29.237 23.2762 29.7005 22.8127 30.2734 22.8101H30.2812C31.4818 22.8101 32.6146 23.2606 33.388 24.0366C34.0156 24.6694 34.3594 25.4767 34.3568 26.3127C34.3489 28.2293 32.5286 29.7866 30.2917 29.797H30.2943Z" fill="#00A19B"/>
<path d="M30.4557 31.2448C29.8802 31.2474 29.4114 30.7839 29.4088 30.2083L29.3437 17.3203C29.3411 16.7448 29.8047 16.2761 30.3802 16.2734C30.9557 16.2708 31.4245 16.7344 31.4271 17.3099L31.4922 30.1979C31.4948 30.7734 31.0312 31.2422 30.4557 31.2448Z" fill="#00A19B"/>
</g>
</svg>
