<svg width="50" height="50" viewBox="0 0 50 50" fill="none" xmlns="http://www.w3.org/2000/svg">
<g clip-path="url(#clip0_163_16072)">
<mask id="mask0_163_16072" style="mask-type:luminance" maskUnits="userSpaceOnUse" x="0" y="0" width="50" height="50">
<path d="M50 0H0V50H50V0Z" fill="white"/>
</mask>
<g mask="url(#mask0_163_16072)">
<path d="M23.9427 44.026C23.3932 44.026 23.0312 43.7995 22.8437 43.6354C22.5937 43.4167 22.1875 42.9141 22.2943 41.9818C22.3437 41.5417 22.4115 41.1042 22.474 40.6823C22.5365 40.2682 22.5937 39.8776 22.6406 39.4818C22.724 38.7604 22.7109 38.7578 22.0443 38.5859C21.6328 38.4792 21.2057 38.4036 20.7552 38.3229C20.3307 38.2474 19.8906 38.1693 19.4479 38.0625C14.6432 36.8906 10.9922 34.6328 8.29166 31.1562C5.94791 28.138 4.93229 24.7422 5.27344 21.0599C5.57031 17.8594 6.91406 14.9609 9.27083 12.4401C12.2344 9.26823 16.0964 7.23437 20.7474 6.39583C21.7682 6.21094 22.7995 6.11979 23.5547 6.05208C23.8255 6.02865 24.0651 6.00781 24.2604 5.98437L24.3255 5.97656H24.3932C30.3177 6.07292 34.8776 7.54167 38.7422 10.6016C41.7109 12.9531 43.6146 15.8333 44.401 19.1641C45.3646 23.2448 44.5573 27.1068 42.0026 30.6406C40.599 32.5833 38.8073 34.4062 36.3672 36.3802C32.849 39.224 29.5 41.4974 26.1224 43.3333C25.6458 43.5937 25.1094 43.7995 24.5312 43.9505C24.3151 44.0052 24.1224 44.0286 23.9453 44.0286L23.9427 44.026ZM24.4245 8.0599C24.2292 8.08073 23.9974 8.10156 23.7396 8.125C22.9844 8.19271 22.0443 8.27604 21.1172 8.44271C16.8594 9.21094 13.4818 10.9818 10.7943 13.8594C8.76042 16.0339 7.60156 18.5208 7.34896 21.25C7.05729 24.388 7.92969 27.2917 9.9375 29.875C12.3385 32.9661 15.612 34.9818 19.9427 36.0365C20.3203 36.1276 20.7083 36.1979 21.1198 36.2708C21.5911 36.3542 22.0781 36.4401 22.5677 36.5677C24.2526 37.0026 24.9141 37.9766 24.7109 39.7214C24.6615 40.151 24.5964 40.5781 24.5339 40.9922C24.4922 41.2734 24.4505 41.5417 24.4141 41.8099C24.6693 41.7214 24.9062 41.6198 25.1224 41.5026C28.3854 39.7292 31.6354 37.5234 35.0521 34.7604C37.3464 32.9062 39.0156 31.2083 40.3099 29.4219C42.4948 26.401 43.1875 23.1094 42.3698 19.6458C41.6849 16.7422 40.0729 14.3203 37.4453 12.2396C33.974 9.48958 29.8333 8.16146 24.4219 8.06771L24.4245 8.0599Z" fill="#00A19B"/>
<path d="M28.3568 23.6873C28.3255 23.6952 28.2917 23.703 28.2604 23.7108C27.9896 23.3436 27.7161 22.9764 27.4453 22.6066C26.4583 21.2655 25.4766 19.9191 24.4844 18.5806C24.1641 18.1457 23.7656 18.0077 23.3516 18.1457C22.9427 18.2811 22.6667 18.6457 22.6641 19.1118C22.6589 21.6483 22.6589 24.1847 22.6641 26.7212C22.6641 27.1691 22.9375 27.5311 23.3229 27.6717C23.9948 27.9139 24.6432 27.4269 24.6484 26.6587C24.6563 25.2785 24.6484 23.8983 24.6484 22.5181C24.6484 22.3879 24.6484 22.2603 24.6484 22.1301C24.8255 22.2446 24.9271 22.3774 25.0286 22.5129C26.1745 24.078 27.3177 25.6431 28.4635 27.2056C28.8125 27.6795 29.1823 27.8254 29.6432 27.6821C30.1068 27.5389 30.3438 27.1717 30.3438 26.5832C30.3438 24.9295 30.3438 23.2759 30.3438 21.6222C30.3438 20.7655 30.3516 19.9061 30.3385 19.0493C30.3307 18.5571 29.9688 18.1795 29.4922 18.1092C29.0365 18.0415 28.5755 18.3019 28.4349 18.7472C28.3646 18.966 28.3568 19.2108 28.3568 19.4452C28.349 20.7264 28.3542 22.0077 28.3542 23.2889C28.3542 23.4217 28.3542 23.5519 28.3542 23.6847L28.3568 23.6873Z" fill="#00A19B"/>
<path d="M33.7187 25.7397V23.9142C33.8776 23.9142 34.0104 23.9142 34.1458 23.9142C34.9036 23.9142 35.6615 23.9194 36.4193 23.9142C37.0495 23.909 37.5 23.4871 37.5 22.922C37.5 22.3465 37.0547 21.9299 36.4297 21.9246C35.8073 21.9194 35.1875 21.9246 34.5651 21.9246C34.2839 21.9246 34.0026 21.9246 33.7266 21.9246V20.0861C34.638 20.0861 35.5182 20.0861 36.3984 20.0861C37.0417 20.0861 37.4844 19.6981 37.5 19.1252C37.5156 18.5679 37.0677 18.1069 36.4505 18.0991C35.2214 18.0861 33.9896 18.0861 32.7604 18.0991C32.1146 18.1069 31.7214 18.5158 31.7187 19.1642C31.7135 21.6616 31.7135 24.1616 31.7187 26.659C31.7187 27.3413 32.1328 27.745 32.8151 27.7476C33.9948 27.7528 35.1771 27.7528 36.3568 27.7476C37.026 27.7476 37.5026 27.3179 37.5 26.7319C37.4974 26.1382 37.0365 25.745 36.3437 25.7423C35.4766 25.7423 34.6094 25.7423 33.7214 25.7423L33.7187 25.7397Z" fill="#00A19B"/>
<path d="M14.5078 25.7395C14.5078 25.0077 14.5078 24.3385 14.5078 23.6666C14.5078 22.164 14.513 20.6588 14.5052 19.1562C14.5 18.5546 14.0729 18.1093 13.526 18.0937C12.9818 18.078 12.513 18.5233 12.5104 19.1145C12.5 21.651 12.5 24.1848 12.5104 26.7213C12.5104 27.3098 12.9401 27.7343 13.5312 27.7395C14.7864 27.7551 16.0417 27.7551 17.2969 27.7395C17.8437 27.7317 18.25 27.328 18.2891 26.815C18.3359 26.2265 17.8854 25.7473 17.263 25.7421C16.3594 25.7343 15.4557 25.7421 14.5104 25.7421L14.5078 25.7395Z" fill="#00A19B"/>
<path d="M19.2292 22.8853C19.2292 24.1145 19.2292 25.3436 19.2292 26.5728C19.2292 27.2577 19.6354 27.7369 20.2135 27.7395C20.7969 27.7447 21.2188 27.2655 21.2188 26.591C21.2188 24.1327 21.2188 21.6718 21.2188 19.2134C21.2188 18.5546 20.8099 18.0936 20.2318 18.0884C19.6432 18.0832 19.2292 18.5494 19.2266 19.2317C19.2266 20.4478 19.2266 21.6665 19.2266 22.8827L19.2292 22.8853Z" fill="#00A19B"/>
</g>
</g>
<defs>
<clipPath id="clip0_163_16072">
<rect width="50" height="50" fill="white"/>
</clipPath>
</defs>
</svg>
